<mxfile host="app.diagrams.net" agent="Mozilla/5.0 (Windows NT 10.0; Win64; x64) AppleWebKit/537.36 (KHTML, like Gecko) Chrome/133.0.0.0 Safari/537.36 Edg/133.0.0.0" version="26.0.16">
  <diagram id="6a731a19-8d31-9384-78a2-239565b7b9f0" name="Page-1">
    <mxGraphModel dx="3873" dy="1770" grid="0" gridSize="10" guides="1" tooltips="1" connect="1" arrows="1" fold="1" page="0" pageScale="1" pageWidth="827" pageHeight="1169" background="none" math="0" shadow="0">
      <root>
        <mxCell id="0" />
        <mxCell id="1" parent="0" />
        <mxCell id="SkOCSefM65isGyV2LLbA-2259" value="" style="rounded=1;whiteSpace=wrap;html=1;fillColor=#dae8fc;strokeColor=#6c8ebf;" vertex="1" parent="1">
          <mxGeometry x="1737" y="1485" width="690" height="586.67" as="geometry" />
        </mxCell>
        <mxCell id="SkOCSefM65isGyV2LLbA-2375" value="" style="group" vertex="1" connectable="0" parent="1">
          <mxGeometry x="910" y="178" width="769.666748046875" height="263" as="geometry" />
        </mxCell>
        <mxCell id="SkOCSefM65isGyV2LLbA-2308" value="" style="group" vertex="1" connectable="0" parent="SkOCSefM65isGyV2LLbA-2375">
          <mxGeometry x="141" width="468" height="74" as="geometry" />
        </mxCell>
        <mxCell id="SkOCSefM65isGyV2LLbA-2339" style="edgeStyle=elbowEdgeStyle;rounded=0;orthogonalLoop=1;jettySize=auto;html=1;exitX=0.5;exitY=1;exitDx=0;exitDy=0;exitPerimeter=0;endArrow=none;startFill=0;strokeWidth=3;" edge="1" parent="SkOCSefM65isGyV2LLbA-2308" source="SkOCSefM65isGyV2LLbA-2309">
          <mxGeometry relative="1" as="geometry">
            <mxPoint x="136.76470588235316" y="124.88236012178311" as="targetPoint" />
          </mxGeometry>
        </mxCell>
        <mxCell id="SkOCSefM65isGyV2LLbA-2309" value="" style="shape=mxgraph.cisco.computers_and_peripherals.pc;sketch=0;html=1;pointerEvents=1;dashed=0;fillColor=#036897;strokeColor=#ffffff;strokeWidth=2;verticalLabelPosition=bottom;verticalAlign=top;align=center;outlineConnect=0;" vertex="1" parent="SkOCSefM65isGyV2LLbA-2308">
          <mxGeometry x="98" width="78" height="70" as="geometry" />
        </mxCell>
        <mxCell id="SkOCSefM65isGyV2LLbA-2338" style="edgeStyle=elbowEdgeStyle;rounded=0;orthogonalLoop=1;jettySize=auto;html=1;exitX=0.5;exitY=1;exitDx=0;exitDy=0;exitPerimeter=0;endArrow=none;startFill=0;strokeWidth=3;" edge="1" parent="SkOCSefM65isGyV2LLbA-2308" source="SkOCSefM65isGyV2LLbA-2310">
          <mxGeometry relative="1" as="geometry">
            <mxPoint x="39.11764705882342" y="126.76479204963232" as="targetPoint" />
          </mxGeometry>
        </mxCell>
        <mxCell id="SkOCSefM65isGyV2LLbA-2310" value="" style="shape=mxgraph.cisco.computers_and_peripherals.pc;sketch=0;html=1;pointerEvents=1;dashed=0;fillColor=#036897;strokeColor=#ffffff;strokeWidth=2;verticalLabelPosition=bottom;verticalAlign=top;align=center;outlineConnect=0;" vertex="1" parent="SkOCSefM65isGyV2LLbA-2308">
          <mxGeometry width="78" height="70" as="geometry" />
        </mxCell>
        <mxCell id="SkOCSefM65isGyV2LLbA-2342" style="edgeStyle=none;rounded=0;orthogonalLoop=1;jettySize=auto;html=1;exitX=0.5;exitY=1;exitDx=0;exitDy=0;exitPerimeter=0;endArrow=none;startFill=0;strokeWidth=3;" edge="1" parent="SkOCSefM65isGyV2LLbA-2308" source="SkOCSefM65isGyV2LLbA-2311">
          <mxGeometry relative="1" as="geometry">
            <mxPoint x="332.0588235294117" y="126.76479204963232" as="targetPoint" />
          </mxGeometry>
        </mxCell>
        <mxCell id="SkOCSefM65isGyV2LLbA-2311" value="" style="shape=mxgraph.cisco.computers_and_peripherals.pc;sketch=0;html=1;pointerEvents=1;dashed=0;fillColor=#036897;strokeColor=#ffffff;strokeWidth=2;verticalLabelPosition=bottom;verticalAlign=top;align=center;outlineConnect=0;" vertex="1" parent="SkOCSefM65isGyV2LLbA-2308">
          <mxGeometry x="293" width="78" height="70" as="geometry" />
        </mxCell>
        <mxCell id="SkOCSefM65isGyV2LLbA-2341" style="edgeStyle=none;rounded=0;orthogonalLoop=1;jettySize=auto;html=1;exitX=0.5;exitY=1;exitDx=0;exitDy=0;exitPerimeter=0;endArrow=none;startFill=0;strokeWidth=3;" edge="1" parent="SkOCSefM65isGyV2LLbA-2308" source="SkOCSefM65isGyV2LLbA-2312">
          <mxGeometry relative="1" as="geometry">
            <mxPoint x="234.41176470588243" y="125.82355813419122" as="targetPoint" />
          </mxGeometry>
        </mxCell>
        <mxCell id="SkOCSefM65isGyV2LLbA-2312" value="" style="shape=mxgraph.cisco.computers_and_peripherals.pc;sketch=0;html=1;pointerEvents=1;dashed=0;fillColor=#036897;strokeColor=#ffffff;strokeWidth=2;verticalLabelPosition=bottom;verticalAlign=top;align=center;outlineConnect=0;" vertex="1" parent="SkOCSefM65isGyV2LLbA-2308">
          <mxGeometry x="195" width="78" height="70" as="geometry" />
        </mxCell>
        <mxCell id="SkOCSefM65isGyV2LLbA-2343" style="edgeStyle=none;rounded=0;orthogonalLoop=1;jettySize=auto;html=1;exitX=0.5;exitY=1;exitDx=0;exitDy=0;exitPerimeter=0;endArrow=none;startFill=0;strokeWidth=3;" edge="1" parent="SkOCSefM65isGyV2LLbA-2308" source="SkOCSefM65isGyV2LLbA-2313">
          <mxGeometry relative="1" as="geometry">
            <mxPoint x="428.52941176470586" y="126.76479204963232" as="targetPoint" />
          </mxGeometry>
        </mxCell>
        <mxCell id="SkOCSefM65isGyV2LLbA-2313" value="" style="shape=mxgraph.cisco.computers_and_peripherals.pc;sketch=0;html=1;pointerEvents=1;dashed=0;fillColor=#036897;strokeColor=#ffffff;strokeWidth=2;verticalLabelPosition=bottom;verticalAlign=top;align=center;outlineConnect=0;" vertex="1" parent="SkOCSefM65isGyV2LLbA-2308">
          <mxGeometry x="390" width="78" height="70" as="geometry" />
        </mxCell>
        <mxCell id="SkOCSefM65isGyV2LLbA-2320" value="" style="group" vertex="1" connectable="0" parent="SkOCSefM65isGyV2LLbA-2375">
          <mxGeometry x="141" y="189" width="468" height="74" as="geometry" />
        </mxCell>
        <mxCell id="SkOCSefM65isGyV2LLbA-2345" style="edgeStyle=none;rounded=0;orthogonalLoop=1;jettySize=auto;html=1;exitX=0.5;exitY=0;exitDx=0;exitDy=0;exitPerimeter=0;endArrow=none;startFill=0;strokeWidth=3;" edge="1" parent="SkOCSefM65isGyV2LLbA-2320" source="SkOCSefM65isGyV2LLbA-2321">
          <mxGeometry relative="1" as="geometry">
            <mxPoint x="136.76470588235316" y="-62.23520795036768" as="targetPoint" />
          </mxGeometry>
        </mxCell>
        <mxCell id="SkOCSefM65isGyV2LLbA-2321" value="" style="shape=mxgraph.cisco.computers_and_peripherals.pc;sketch=0;html=1;pointerEvents=1;dashed=0;fillColor=#036897;strokeColor=#ffffff;strokeWidth=2;verticalLabelPosition=bottom;verticalAlign=top;align=center;outlineConnect=0;" vertex="1" parent="SkOCSefM65isGyV2LLbA-2320">
          <mxGeometry x="98" width="78" height="70" as="geometry" />
        </mxCell>
        <mxCell id="SkOCSefM65isGyV2LLbA-2344" style="edgeStyle=none;rounded=0;orthogonalLoop=1;jettySize=auto;html=1;exitX=0.5;exitY=0;exitDx=0;exitDy=0;exitPerimeter=0;endArrow=none;startFill=0;strokeWidth=3;" edge="1" parent="SkOCSefM65isGyV2LLbA-2320" source="SkOCSefM65isGyV2LLbA-2322">
          <mxGeometry relative="1" as="geometry">
            <mxPoint x="39.11764705882342" y="-64.11763987821689" as="targetPoint" />
          </mxGeometry>
        </mxCell>
        <mxCell id="SkOCSefM65isGyV2LLbA-2322" value="" style="shape=mxgraph.cisco.computers_and_peripherals.pc;sketch=0;html=1;pointerEvents=1;dashed=0;fillColor=#036897;strokeColor=#ffffff;strokeWidth=2;verticalLabelPosition=bottom;verticalAlign=top;align=center;outlineConnect=0;" vertex="1" parent="SkOCSefM65isGyV2LLbA-2320">
          <mxGeometry width="78" height="70" as="geometry" />
        </mxCell>
        <mxCell id="SkOCSefM65isGyV2LLbA-2347" style="edgeStyle=none;rounded=0;orthogonalLoop=1;jettySize=auto;html=1;exitX=0.5;exitY=0;exitDx=0;exitDy=0;exitPerimeter=0;endArrow=none;startFill=0;strokeWidth=3;" edge="1" parent="SkOCSefM65isGyV2LLbA-2320" source="SkOCSefM65isGyV2LLbA-2323">
          <mxGeometry relative="1" as="geometry">
            <mxPoint x="332.0588235294117" y="-65.99996409696689" as="targetPoint" />
          </mxGeometry>
        </mxCell>
        <mxCell id="SkOCSefM65isGyV2LLbA-2323" value="" style="shape=mxgraph.cisco.computers_and_peripherals.pc;sketch=0;html=1;pointerEvents=1;dashed=0;fillColor=#036897;strokeColor=#ffffff;strokeWidth=2;verticalLabelPosition=bottom;verticalAlign=top;align=center;outlineConnect=0;" vertex="1" parent="SkOCSefM65isGyV2LLbA-2320">
          <mxGeometry x="293" y="4" width="78" height="70" as="geometry" />
        </mxCell>
        <mxCell id="SkOCSefM65isGyV2LLbA-2346" style="edgeStyle=none;rounded=0;orthogonalLoop=1;jettySize=auto;html=1;exitX=0.5;exitY=0;exitDx=0;exitDy=0;exitPerimeter=0;endArrow=none;startFill=0;strokeWidth=3;" edge="1" parent="SkOCSefM65isGyV2LLbA-2320" source="SkOCSefM65isGyV2LLbA-2324">
          <mxGeometry relative="1" as="geometry">
            <mxPoint x="234.41176470588243" y="-65.99996409696689" as="targetPoint" />
          </mxGeometry>
        </mxCell>
        <mxCell id="SkOCSefM65isGyV2LLbA-2324" value="" style="shape=mxgraph.cisco.computers_and_peripherals.pc;sketch=0;html=1;pointerEvents=1;dashed=0;fillColor=#036897;strokeColor=#ffffff;strokeWidth=2;verticalLabelPosition=bottom;verticalAlign=top;align=center;outlineConnect=0;" vertex="1" parent="SkOCSefM65isGyV2LLbA-2320">
          <mxGeometry x="195" y="4" width="78" height="70" as="geometry" />
        </mxCell>
        <mxCell id="SkOCSefM65isGyV2LLbA-2348" style="edgeStyle=none;rounded=0;orthogonalLoop=1;jettySize=auto;html=1;exitX=0.5;exitY=0;exitDx=0;exitDy=0;exitPerimeter=0;endArrow=none;startFill=0;strokeWidth=3;" edge="1" parent="SkOCSefM65isGyV2LLbA-2320" source="SkOCSefM65isGyV2LLbA-2325">
          <mxGeometry relative="1" as="geometry">
            <mxPoint x="428.52941176470586" y="-63.17644186580878" as="targetPoint" />
          </mxGeometry>
        </mxCell>
        <mxCell id="SkOCSefM65isGyV2LLbA-2325" value="" style="shape=mxgraph.cisco.computers_and_peripherals.pc;sketch=0;html=1;pointerEvents=1;dashed=0;fillColor=#036897;strokeColor=#ffffff;strokeWidth=2;verticalLabelPosition=bottom;verticalAlign=top;align=center;outlineConnect=0;" vertex="1" parent="SkOCSefM65isGyV2LLbA-2320">
          <mxGeometry x="390" y="4" width="78" height="70" as="geometry" />
        </mxCell>
        <mxCell id="SkOCSefM65isGyV2LLbA-2374" value="" style="group" vertex="1" connectable="0" parent="SkOCSefM65isGyV2LLbA-2375">
          <mxGeometry y="108.5" width="769.666748046875" height="33" as="geometry" />
        </mxCell>
        <mxCell id="SkOCSefM65isGyV2LLbA-2334" style="rounded=0;orthogonalLoop=1;jettySize=auto;html=1;elbow=vertical;strokeWidth=3;" edge="1" parent="SkOCSefM65isGyV2LLbA-2374" source="SkOCSefM65isGyV2LLbA-2327">
          <mxGeometry relative="1" as="geometry">
            <mxPoint x="769.666748046875" y="16.5" as="targetPoint" />
          </mxGeometry>
        </mxCell>
        <mxCell id="SkOCSefM65isGyV2LLbA-2327" value="" style="shape=mxgraph.cisco.switches.workgroup_switch;sketch=0;html=1;pointerEvents=1;dashed=0;fillColor=#036897;strokeColor=#ffffff;strokeWidth=2;verticalLabelPosition=bottom;verticalAlign=top;align=center;outlineConnect=0;" vertex="1" parent="SkOCSefM65isGyV2LLbA-2374">
          <mxGeometry width="66.66" height="33" as="geometry" />
        </mxCell>
        <mxCell id="SkOCSefM65isGyV2LLbA-2532" value="" style="group" vertex="1" connectable="0" parent="1">
          <mxGeometry x="-258" y="50" width="702" height="597" as="geometry" />
        </mxCell>
        <mxCell id="SkOCSefM65isGyV2LLbA-2485" value="" style="group" vertex="1" connectable="0" parent="SkOCSefM65isGyV2LLbA-2532">
          <mxGeometry x="132" y="76" width="397" height="70" as="geometry" />
        </mxCell>
        <mxCell id="SkOCSefM65isGyV2LLbA-2509" style="edgeStyle=none;rounded=0;orthogonalLoop=1;jettySize=auto;html=1;strokeWidth=3;endArrow=none;startFill=0;" edge="1" parent="SkOCSefM65isGyV2LLbA-2485" source="SkOCSefM65isGyV2LLbA-2280">
          <mxGeometry relative="1" as="geometry">
            <mxPoint x="39" y="99.1666819254558" as="targetPoint" />
          </mxGeometry>
        </mxCell>
        <mxCell id="SkOCSefM65isGyV2LLbA-2280" value="" style="shape=mxgraph.cisco.computers_and_peripherals.pc;sketch=0;html=1;pointerEvents=1;dashed=0;fillColor=#036897;strokeColor=#ffffff;strokeWidth=2;verticalLabelPosition=bottom;verticalAlign=top;align=center;outlineConnect=0;" vertex="1" parent="SkOCSefM65isGyV2LLbA-2485">
          <mxGeometry width="78" height="70" as="geometry" />
        </mxCell>
        <mxCell id="SkOCSefM65isGyV2LLbA-2510" style="edgeStyle=none;rounded=0;orthogonalLoop=1;jettySize=auto;html=1;exitX=0.5;exitY=1;exitDx=0;exitDy=0;exitPerimeter=0;strokeWidth=3;endArrow=none;startFill=0;" edge="1" parent="SkOCSefM65isGyV2LLbA-2485" source="SkOCSefM65isGyV2LLbA-2281">
          <mxGeometry relative="1" as="geometry">
            <mxPoint x="198.66666666666674" y="98.5" as="targetPoint" />
          </mxGeometry>
        </mxCell>
        <mxCell id="SkOCSefM65isGyV2LLbA-2281" value="" style="shape=mxgraph.cisco.computers_and_peripherals.pc;sketch=0;html=1;pointerEvents=1;dashed=0;fillColor=#036897;strokeColor=#ffffff;strokeWidth=2;verticalLabelPosition=bottom;verticalAlign=top;align=center;outlineConnect=0;" vertex="1" parent="SkOCSefM65isGyV2LLbA-2485">
          <mxGeometry x="160" width="78" height="70" as="geometry" />
        </mxCell>
        <mxCell id="SkOCSefM65isGyV2LLbA-2512" style="edgeStyle=none;rounded=0;orthogonalLoop=1;jettySize=auto;html=1;exitX=0.5;exitY=1;exitDx=0;exitDy=0;exitPerimeter=0;strokeWidth=3;endArrow=none;startFill=0;" edge="1" parent="SkOCSefM65isGyV2LLbA-2485" source="SkOCSefM65isGyV2LLbA-2484">
          <mxGeometry relative="1" as="geometry">
            <mxPoint x="357.8333333333335" y="99.83333841959643" as="targetPoint" />
          </mxGeometry>
        </mxCell>
        <mxCell id="SkOCSefM65isGyV2LLbA-2484" value="" style="shape=mxgraph.cisco.computers_and_peripherals.pc;sketch=0;html=1;pointerEvents=1;dashed=0;fillColor=#036897;strokeColor=#ffffff;strokeWidth=2;verticalLabelPosition=bottom;verticalAlign=top;align=center;outlineConnect=0;" vertex="1" parent="SkOCSefM65isGyV2LLbA-2485">
          <mxGeometry x="319" width="78" height="70" as="geometry" />
        </mxCell>
        <mxCell id="SkOCSefM65isGyV2LLbA-2486" value="" style="group" vertex="1" connectable="0" parent="SkOCSefM65isGyV2LLbA-2532">
          <mxGeometry x="129" y="194" width="403" height="70" as="geometry" />
        </mxCell>
        <mxCell id="SkOCSefM65isGyV2LLbA-2514" style="edgeStyle=none;rounded=0;orthogonalLoop=1;jettySize=auto;html=1;exitX=0.5;exitY=0;exitDx=0;exitDy=0;exitPerimeter=0;strokeWidth=3;endArrow=none;startFill=0;" edge="1" parent="SkOCSefM65isGyV2LLbA-2486" source="SkOCSefM65isGyV2LLbA-2279">
          <mxGeometry relative="1" as="geometry">
            <mxPoint x="42.16666666666674" y="-23.499989827473883" as="targetPoint" />
          </mxGeometry>
        </mxCell>
        <mxCell id="SkOCSefM65isGyV2LLbA-2279" value="" style="shape=mxgraph.cisco.computers_and_peripherals.pc;sketch=0;html=1;pointerEvents=1;dashed=0;fillColor=#036897;strokeColor=#ffffff;strokeWidth=2;verticalLabelPosition=bottom;verticalAlign=top;align=center;outlineConnect=0;" vertex="1" parent="SkOCSefM65isGyV2LLbA-2486">
          <mxGeometry x="3" width="78" height="70" as="geometry" />
        </mxCell>
        <mxCell id="SkOCSefM65isGyV2LLbA-2515" style="edgeStyle=none;rounded=0;orthogonalLoop=1;jettySize=auto;html=1;exitX=0.5;exitY=0;exitDx=0;exitDy=0;exitPerimeter=0;strokeWidth=3;endArrow=none;startFill=0;" edge="1" parent="SkOCSefM65isGyV2LLbA-2486" source="SkOCSefM65isGyV2LLbA-2283">
          <mxGeometry relative="1" as="geometry">
            <mxPoint x="201.66666666666674" y="-21.49999491373694" as="targetPoint" />
          </mxGeometry>
        </mxCell>
        <mxCell id="SkOCSefM65isGyV2LLbA-2283" value="" style="shape=mxgraph.cisco.computers_and_peripherals.pc;sketch=0;html=1;pointerEvents=1;dashed=0;fillColor=#036897;strokeColor=#ffffff;strokeWidth=2;verticalLabelPosition=bottom;verticalAlign=top;align=center;outlineConnect=0;" vertex="1" parent="SkOCSefM65isGyV2LLbA-2486">
          <mxGeometry x="163" width="78" height="70" as="geometry" />
        </mxCell>
        <mxCell id="SkOCSefM65isGyV2LLbA-2516" style="edgeStyle=none;rounded=0;orthogonalLoop=1;jettySize=auto;html=1;exitX=0.5;exitY=0;exitDx=0;exitDy=0;exitPerimeter=0;strokeWidth=3;endArrow=none;startFill=0;" edge="1" parent="SkOCSefM65isGyV2LLbA-2486" source="SkOCSefM65isGyV2LLbA-2483">
          <mxGeometry relative="1" as="geometry">
            <mxPoint x="361.16666666666674" y="-20.833338419596316" as="targetPoint" />
          </mxGeometry>
        </mxCell>
        <mxCell id="SkOCSefM65isGyV2LLbA-2483" value="" style="shape=mxgraph.cisco.computers_and_peripherals.pc;sketch=0;html=1;pointerEvents=1;dashed=0;fillColor=#036897;strokeColor=#ffffff;strokeWidth=2;verticalLabelPosition=bottom;verticalAlign=top;align=center;outlineConnect=0;" vertex="1" parent="SkOCSefM65isGyV2LLbA-2486">
          <mxGeometry x="322" width="78" height="70" as="geometry" />
        </mxCell>
        <mxCell id="SkOCSefM65isGyV2LLbA-2487" value="" style="group" vertex="1" connectable="0" parent="SkOCSefM65isGyV2LLbA-2532">
          <mxGeometry x="132" y="287" width="408" height="70" as="geometry" />
        </mxCell>
        <mxCell id="SkOCSefM65isGyV2LLbA-2282" value="" style="shape=mxgraph.cisco.computers_and_peripherals.pc;sketch=0;html=1;pointerEvents=1;dashed=0;fillColor=#036897;strokeColor=#ffffff;strokeWidth=2;verticalLabelPosition=bottom;verticalAlign=top;align=center;outlineConnect=0;" vertex="1" parent="SkOCSefM65isGyV2LLbA-2487">
          <mxGeometry width="78" height="70" as="geometry" />
        </mxCell>
        <mxCell id="SkOCSefM65isGyV2LLbA-2481" value="" style="shape=mxgraph.cisco.computers_and_peripherals.pc;sketch=0;html=1;pointerEvents=1;dashed=0;fillColor=#036897;strokeColor=#ffffff;strokeWidth=2;verticalLabelPosition=bottom;verticalAlign=top;align=center;outlineConnect=0;" vertex="1" parent="SkOCSefM65isGyV2LLbA-2487">
          <mxGeometry x="165" width="78" height="70" as="geometry" />
        </mxCell>
        <mxCell id="SkOCSefM65isGyV2LLbA-2482" value="" style="shape=mxgraph.cisco.computers_and_peripherals.pc;sketch=0;html=1;pointerEvents=1;dashed=0;fillColor=#036897;strokeColor=#ffffff;strokeWidth=2;verticalLabelPosition=bottom;verticalAlign=top;align=center;outlineConnect=0;" vertex="1" parent="SkOCSefM65isGyV2LLbA-2487">
          <mxGeometry x="330" width="78" height="70" as="geometry" />
        </mxCell>
        <mxCell id="SkOCSefM65isGyV2LLbA-2489" value="" style="group" vertex="1" connectable="0" parent="SkOCSefM65isGyV2LLbA-2532">
          <mxGeometry x="132" y="405" width="408" height="70" as="geometry" />
        </mxCell>
        <mxCell id="SkOCSefM65isGyV2LLbA-2490" value="" style="shape=mxgraph.cisco.computers_and_peripherals.pc;sketch=0;html=1;pointerEvents=1;dashed=0;fillColor=#036897;strokeColor=#ffffff;strokeWidth=2;verticalLabelPosition=bottom;verticalAlign=top;align=center;outlineConnect=0;" vertex="1" parent="SkOCSefM65isGyV2LLbA-2489">
          <mxGeometry width="78" height="70" as="geometry" />
        </mxCell>
        <mxCell id="SkOCSefM65isGyV2LLbA-2491" value="" style="shape=mxgraph.cisco.computers_and_peripherals.pc;sketch=0;html=1;pointerEvents=1;dashed=0;fillColor=#036897;strokeColor=#ffffff;strokeWidth=2;verticalLabelPosition=bottom;verticalAlign=top;align=center;outlineConnect=0;" vertex="1" parent="SkOCSefM65isGyV2LLbA-2489">
          <mxGeometry x="165" width="78" height="70" as="geometry" />
        </mxCell>
        <mxCell id="SkOCSefM65isGyV2LLbA-2492" value="" style="shape=mxgraph.cisco.computers_and_peripherals.pc;sketch=0;html=1;pointerEvents=1;dashed=0;fillColor=#036897;strokeColor=#ffffff;strokeWidth=2;verticalLabelPosition=bottom;verticalAlign=top;align=center;outlineConnect=0;" vertex="1" parent="SkOCSefM65isGyV2LLbA-2489">
          <mxGeometry x="330" width="78" height="70" as="geometry" />
        </mxCell>
        <mxCell id="SkOCSefM65isGyV2LLbA-2495" value="" style="group" vertex="1" connectable="0" parent="SkOCSefM65isGyV2LLbA-2532">
          <mxGeometry x="129" y="492" width="408" height="70" as="geometry" />
        </mxCell>
        <mxCell id="SkOCSefM65isGyV2LLbA-2526" style="edgeStyle=none;rounded=0;orthogonalLoop=1;jettySize=auto;html=1;exitX=0.5;exitY=1;exitDx=0;exitDy=0;exitPerimeter=0;strokeWidth=3;endArrow=none;startFill=0;" edge="1" parent="SkOCSefM65isGyV2LLbA-2495" source="SkOCSefM65isGyV2LLbA-2496">
          <mxGeometry relative="1" as="geometry">
            <mxPoint x="39" y="106" as="targetPoint" />
          </mxGeometry>
        </mxCell>
        <mxCell id="SkOCSefM65isGyV2LLbA-2496" value="" style="shape=mxgraph.cisco.computers_and_peripherals.pc;sketch=0;html=1;pointerEvents=1;dashed=0;fillColor=#036897;strokeColor=#ffffff;strokeWidth=2;verticalLabelPosition=bottom;verticalAlign=top;align=center;outlineConnect=0;" vertex="1" parent="SkOCSefM65isGyV2LLbA-2495">
          <mxGeometry width="78" height="70" as="geometry" />
        </mxCell>
        <mxCell id="SkOCSefM65isGyV2LLbA-2527" style="edgeStyle=none;rounded=0;orthogonalLoop=1;jettySize=auto;html=1;exitX=0.5;exitY=1;exitDx=0;exitDy=0;exitPerimeter=0;strokeWidth=3;endArrow=none;startFill=0;" edge="1" parent="SkOCSefM65isGyV2LLbA-2495" source="SkOCSefM65isGyV2LLbA-2497">
          <mxGeometry relative="1" as="geometry">
            <mxPoint x="204" y="106" as="targetPoint" />
          </mxGeometry>
        </mxCell>
        <mxCell id="SkOCSefM65isGyV2LLbA-2497" value="" style="shape=mxgraph.cisco.computers_and_peripherals.pc;sketch=0;html=1;pointerEvents=1;dashed=0;fillColor=#036897;strokeColor=#ffffff;strokeWidth=2;verticalLabelPosition=bottom;verticalAlign=top;align=center;outlineConnect=0;" vertex="1" parent="SkOCSefM65isGyV2LLbA-2495">
          <mxGeometry x="165" width="78" height="70" as="geometry" />
        </mxCell>
        <mxCell id="SkOCSefM65isGyV2LLbA-2528" style="edgeStyle=none;rounded=0;orthogonalLoop=1;jettySize=auto;html=1;exitX=0.5;exitY=1;exitDx=0;exitDy=0;exitPerimeter=0;strokeWidth=3;endArrow=none;startFill=0;" edge="1" parent="SkOCSefM65isGyV2LLbA-2495" source="SkOCSefM65isGyV2LLbA-2498">
          <mxGeometry relative="1" as="geometry">
            <mxPoint x="369" y="105" as="targetPoint" />
          </mxGeometry>
        </mxCell>
        <mxCell id="SkOCSefM65isGyV2LLbA-2498" value="" style="shape=mxgraph.cisco.computers_and_peripherals.pc;sketch=0;html=1;pointerEvents=1;dashed=0;fillColor=#036897;strokeColor=#ffffff;strokeWidth=2;verticalLabelPosition=bottom;verticalAlign=top;align=center;outlineConnect=0;" vertex="1" parent="SkOCSefM65isGyV2LLbA-2495">
          <mxGeometry x="330" width="78" height="70" as="geometry" />
        </mxCell>
        <mxCell id="SkOCSefM65isGyV2LLbA-2520" style="edgeStyle=none;rounded=0;orthogonalLoop=1;jettySize=auto;html=1;exitX=0.5;exitY=1;exitDx=0;exitDy=0;exitPerimeter=0;strokeWidth=3;endArrow=none;startFill=0;" edge="1" parent="SkOCSefM65isGyV2LLbA-2532" source="SkOCSefM65isGyV2LLbA-2482" target="SkOCSefM65isGyV2LLbA-2492">
          <mxGeometry relative="1" as="geometry" />
        </mxCell>
        <mxCell id="SkOCSefM65isGyV2LLbA-2522" style="edgeStyle=none;rounded=0;orthogonalLoop=1;jettySize=auto;html=1;exitX=0.5;exitY=1;exitDx=0;exitDy=0;exitPerimeter=0;entryX=0.5;entryY=0;entryDx=0;entryDy=0;entryPerimeter=0;strokeWidth=3;endArrow=none;startFill=0;" edge="1" parent="SkOCSefM65isGyV2LLbA-2532" source="SkOCSefM65isGyV2LLbA-2282" target="SkOCSefM65isGyV2LLbA-2490">
          <mxGeometry relative="1" as="geometry" />
        </mxCell>
        <mxCell id="SkOCSefM65isGyV2LLbA-2523" style="edgeStyle=none;rounded=0;orthogonalLoop=1;jettySize=auto;html=1;exitX=0.5;exitY=1;exitDx=0;exitDy=0;exitPerimeter=0;entryX=0.5;entryY=0;entryDx=0;entryDy=0;entryPerimeter=0;strokeWidth=3;endArrow=none;startFill=0;" edge="1" parent="SkOCSefM65isGyV2LLbA-2532" source="SkOCSefM65isGyV2LLbA-2481" target="SkOCSefM65isGyV2LLbA-2491">
          <mxGeometry relative="1" as="geometry" />
        </mxCell>
        <mxCell id="SkOCSefM65isGyV2LLbA-2505" value="" style="shape=mxgraph.cisco.switches.workgroup_switch;sketch=0;html=1;pointerEvents=1;dashed=0;fillColor=#036897;strokeColor=#ffffff;strokeWidth=2;verticalLabelPosition=bottom;verticalAlign=top;align=center;outlineConnect=0;" vertex="1" parent="1">
          <mxGeometry x="-391" y="293" width="66.66" height="33" as="geometry" />
        </mxCell>
        <mxCell id="SkOCSefM65isGyV2LLbA-2507" style="edgeStyle=orthogonalEdgeStyle;rounded=0;orthogonalLoop=1;jettySize=auto;html=1;exitX=0.98;exitY=0.5;exitDx=0;exitDy=0;exitPerimeter=0;strokeWidth=3;endArrow=none;startFill=0;entryX=0;entryY=0.5;entryDx=0;entryDy=0;entryPerimeter=0;" edge="1" parent="1" source="SkOCSefM65isGyV2LLbA-2505" target="SkOCSefM65isGyV2LLbA-2327">
          <mxGeometry relative="1" as="geometry">
            <mxPoint x="444" y="646.95" as="targetPoint" />
            <mxPoint x="-224.6700000000003" y="56.00000000000023" as="sourcePoint" />
            <Array as="points">
              <mxPoint x="-249" y="310" />
              <mxPoint x="-174" y="308" />
              <mxPoint x="-174" y="218" />
              <mxPoint x="339" y="218" />
              <mxPoint x="339" y="426" />
              <mxPoint x="-177" y="426" />
              <mxPoint x="-177" y="647" />
              <mxPoint x="612" y="647" />
              <mxPoint x="612" y="303" />
            </Array>
          </mxGeometry>
        </mxCell>
        <mxCell id="SkOCSefM65isGyV2LLbA-2569" value="" style="group" vertex="1" connectable="0" parent="1">
          <mxGeometry x="904" y="895" width="769.666748046875" height="263" as="geometry" />
        </mxCell>
        <mxCell id="SkOCSefM65isGyV2LLbA-2570" value="" style="group" vertex="1" connectable="0" parent="SkOCSefM65isGyV2LLbA-2569">
          <mxGeometry x="141" width="468" height="74" as="geometry" />
        </mxCell>
        <mxCell id="SkOCSefM65isGyV2LLbA-2571" style="edgeStyle=elbowEdgeStyle;rounded=0;orthogonalLoop=1;jettySize=auto;html=1;exitX=0.5;exitY=1;exitDx=0;exitDy=0;exitPerimeter=0;endArrow=none;startFill=0;strokeWidth=3;" edge="1" parent="SkOCSefM65isGyV2LLbA-2570" source="SkOCSefM65isGyV2LLbA-2572">
          <mxGeometry relative="1" as="geometry">
            <mxPoint x="136.76470588235316" y="124.88236012178311" as="targetPoint" />
          </mxGeometry>
        </mxCell>
        <mxCell id="SkOCSefM65isGyV2LLbA-2572" value="" style="shape=mxgraph.cisco.computers_and_peripherals.pc;sketch=0;html=1;pointerEvents=1;dashed=0;fillColor=#036897;strokeColor=#ffffff;strokeWidth=2;verticalLabelPosition=bottom;verticalAlign=top;align=center;outlineConnect=0;" vertex="1" parent="SkOCSefM65isGyV2LLbA-2570">
          <mxGeometry x="98" width="78" height="70" as="geometry" />
        </mxCell>
        <mxCell id="SkOCSefM65isGyV2LLbA-2573" style="edgeStyle=elbowEdgeStyle;rounded=0;orthogonalLoop=1;jettySize=auto;html=1;exitX=0.5;exitY=1;exitDx=0;exitDy=0;exitPerimeter=0;endArrow=none;startFill=0;strokeWidth=3;" edge="1" parent="SkOCSefM65isGyV2LLbA-2570" source="SkOCSefM65isGyV2LLbA-2574">
          <mxGeometry relative="1" as="geometry">
            <mxPoint x="39.11764705882342" y="126.76479204963232" as="targetPoint" />
          </mxGeometry>
        </mxCell>
        <mxCell id="SkOCSefM65isGyV2LLbA-2574" value="" style="shape=mxgraph.cisco.computers_and_peripherals.pc;sketch=0;html=1;pointerEvents=1;dashed=0;fillColor=#036897;strokeColor=#ffffff;strokeWidth=2;verticalLabelPosition=bottom;verticalAlign=top;align=center;outlineConnect=0;" vertex="1" parent="SkOCSefM65isGyV2LLbA-2570">
          <mxGeometry width="78" height="70" as="geometry" />
        </mxCell>
        <mxCell id="SkOCSefM65isGyV2LLbA-2575" style="edgeStyle=none;rounded=0;orthogonalLoop=1;jettySize=auto;html=1;exitX=0.5;exitY=1;exitDx=0;exitDy=0;exitPerimeter=0;endArrow=none;startFill=0;strokeWidth=3;" edge="1" parent="SkOCSefM65isGyV2LLbA-2570" source="SkOCSefM65isGyV2LLbA-2576">
          <mxGeometry relative="1" as="geometry">
            <mxPoint x="332.0588235294117" y="126.76479204963232" as="targetPoint" />
          </mxGeometry>
        </mxCell>
        <mxCell id="SkOCSefM65isGyV2LLbA-2576" value="" style="shape=mxgraph.cisco.computers_and_peripherals.pc;sketch=0;html=1;pointerEvents=1;dashed=0;fillColor=#036897;strokeColor=#ffffff;strokeWidth=2;verticalLabelPosition=bottom;verticalAlign=top;align=center;outlineConnect=0;" vertex="1" parent="SkOCSefM65isGyV2LLbA-2570">
          <mxGeometry x="293" width="78" height="70" as="geometry" />
        </mxCell>
        <mxCell id="SkOCSefM65isGyV2LLbA-2577" style="edgeStyle=none;rounded=0;orthogonalLoop=1;jettySize=auto;html=1;exitX=0.5;exitY=1;exitDx=0;exitDy=0;exitPerimeter=0;endArrow=none;startFill=0;strokeWidth=3;" edge="1" parent="SkOCSefM65isGyV2LLbA-2570" source="SkOCSefM65isGyV2LLbA-2578">
          <mxGeometry relative="1" as="geometry">
            <mxPoint x="234.41176470588243" y="125.82355813419122" as="targetPoint" />
          </mxGeometry>
        </mxCell>
        <mxCell id="SkOCSefM65isGyV2LLbA-2578" value="" style="shape=mxgraph.cisco.computers_and_peripherals.pc;sketch=0;html=1;pointerEvents=1;dashed=0;fillColor=#036897;strokeColor=#ffffff;strokeWidth=2;verticalLabelPosition=bottom;verticalAlign=top;align=center;outlineConnect=0;" vertex="1" parent="SkOCSefM65isGyV2LLbA-2570">
          <mxGeometry x="195" width="78" height="70" as="geometry" />
        </mxCell>
        <mxCell id="SkOCSefM65isGyV2LLbA-2579" style="edgeStyle=none;rounded=0;orthogonalLoop=1;jettySize=auto;html=1;exitX=0.5;exitY=1;exitDx=0;exitDy=0;exitPerimeter=0;endArrow=none;startFill=0;strokeWidth=3;" edge="1" parent="SkOCSefM65isGyV2LLbA-2570" source="SkOCSefM65isGyV2LLbA-2580">
          <mxGeometry relative="1" as="geometry">
            <mxPoint x="428.52941176470586" y="126.76479204963232" as="targetPoint" />
          </mxGeometry>
        </mxCell>
        <mxCell id="SkOCSefM65isGyV2LLbA-2580" value="" style="shape=mxgraph.cisco.computers_and_peripherals.pc;sketch=0;html=1;pointerEvents=1;dashed=0;fillColor=#036897;strokeColor=#ffffff;strokeWidth=2;verticalLabelPosition=bottom;verticalAlign=top;align=center;outlineConnect=0;" vertex="1" parent="SkOCSefM65isGyV2LLbA-2570">
          <mxGeometry x="390" width="78" height="70" as="geometry" />
        </mxCell>
        <mxCell id="SkOCSefM65isGyV2LLbA-2581" value="" style="group" vertex="1" connectable="0" parent="SkOCSefM65isGyV2LLbA-2569">
          <mxGeometry x="141" y="189" width="468" height="74" as="geometry" />
        </mxCell>
        <mxCell id="SkOCSefM65isGyV2LLbA-2582" style="edgeStyle=none;rounded=0;orthogonalLoop=1;jettySize=auto;html=1;exitX=0.5;exitY=0;exitDx=0;exitDy=0;exitPerimeter=0;endArrow=none;startFill=0;strokeWidth=3;" edge="1" parent="SkOCSefM65isGyV2LLbA-2581" source="SkOCSefM65isGyV2LLbA-2583">
          <mxGeometry relative="1" as="geometry">
            <mxPoint x="136.76470588235316" y="-62.23520795036768" as="targetPoint" />
          </mxGeometry>
        </mxCell>
        <mxCell id="SkOCSefM65isGyV2LLbA-2583" value="" style="shape=mxgraph.cisco.computers_and_peripherals.pc;sketch=0;html=1;pointerEvents=1;dashed=0;fillColor=#036897;strokeColor=#ffffff;strokeWidth=2;verticalLabelPosition=bottom;verticalAlign=top;align=center;outlineConnect=0;" vertex="1" parent="SkOCSefM65isGyV2LLbA-2581">
          <mxGeometry x="98" width="78" height="70" as="geometry" />
        </mxCell>
        <mxCell id="SkOCSefM65isGyV2LLbA-2584" style="edgeStyle=none;rounded=0;orthogonalLoop=1;jettySize=auto;html=1;exitX=0.5;exitY=0;exitDx=0;exitDy=0;exitPerimeter=0;endArrow=none;startFill=0;strokeWidth=3;" edge="1" parent="SkOCSefM65isGyV2LLbA-2581" source="SkOCSefM65isGyV2LLbA-2585">
          <mxGeometry relative="1" as="geometry">
            <mxPoint x="39.11764705882342" y="-64.11763987821689" as="targetPoint" />
          </mxGeometry>
        </mxCell>
        <mxCell id="SkOCSefM65isGyV2LLbA-2585" value="" style="shape=mxgraph.cisco.computers_and_peripherals.pc;sketch=0;html=1;pointerEvents=1;dashed=0;fillColor=#036897;strokeColor=#ffffff;strokeWidth=2;verticalLabelPosition=bottom;verticalAlign=top;align=center;outlineConnect=0;" vertex="1" parent="SkOCSefM65isGyV2LLbA-2581">
          <mxGeometry width="78" height="70" as="geometry" />
        </mxCell>
        <mxCell id="SkOCSefM65isGyV2LLbA-2586" style="edgeStyle=none;rounded=0;orthogonalLoop=1;jettySize=auto;html=1;exitX=0.5;exitY=0;exitDx=0;exitDy=0;exitPerimeter=0;endArrow=none;startFill=0;strokeWidth=3;" edge="1" parent="SkOCSefM65isGyV2LLbA-2581" source="SkOCSefM65isGyV2LLbA-2587">
          <mxGeometry relative="1" as="geometry">
            <mxPoint x="332.0588235294117" y="-65.99996409696689" as="targetPoint" />
          </mxGeometry>
        </mxCell>
        <mxCell id="SkOCSefM65isGyV2LLbA-2587" value="" style="shape=mxgraph.cisco.computers_and_peripherals.pc;sketch=0;html=1;pointerEvents=1;dashed=0;fillColor=#036897;strokeColor=#ffffff;strokeWidth=2;verticalLabelPosition=bottom;verticalAlign=top;align=center;outlineConnect=0;" vertex="1" parent="SkOCSefM65isGyV2LLbA-2581">
          <mxGeometry x="293" y="4" width="78" height="70" as="geometry" />
        </mxCell>
        <mxCell id="SkOCSefM65isGyV2LLbA-2588" style="edgeStyle=none;rounded=0;orthogonalLoop=1;jettySize=auto;html=1;exitX=0.5;exitY=0;exitDx=0;exitDy=0;exitPerimeter=0;endArrow=none;startFill=0;strokeWidth=3;" edge="1" parent="SkOCSefM65isGyV2LLbA-2581" source="SkOCSefM65isGyV2LLbA-2589">
          <mxGeometry relative="1" as="geometry">
            <mxPoint x="234.41176470588243" y="-65.99996409696689" as="targetPoint" />
          </mxGeometry>
        </mxCell>
        <mxCell id="SkOCSefM65isGyV2LLbA-2589" value="" style="shape=mxgraph.cisco.computers_and_peripherals.pc;sketch=0;html=1;pointerEvents=1;dashed=0;fillColor=#036897;strokeColor=#ffffff;strokeWidth=2;verticalLabelPosition=bottom;verticalAlign=top;align=center;outlineConnect=0;" vertex="1" parent="SkOCSefM65isGyV2LLbA-2581">
          <mxGeometry x="195" y="4" width="78" height="70" as="geometry" />
        </mxCell>
        <mxCell id="SkOCSefM65isGyV2LLbA-2590" style="edgeStyle=none;rounded=0;orthogonalLoop=1;jettySize=auto;html=1;exitX=0.5;exitY=0;exitDx=0;exitDy=0;exitPerimeter=0;endArrow=none;startFill=0;strokeWidth=3;" edge="1" parent="SkOCSefM65isGyV2LLbA-2581" source="SkOCSefM65isGyV2LLbA-2591">
          <mxGeometry relative="1" as="geometry">
            <mxPoint x="428.52941176470586" y="-63.17644186580878" as="targetPoint" />
          </mxGeometry>
        </mxCell>
        <mxCell id="SkOCSefM65isGyV2LLbA-2591" value="" style="shape=mxgraph.cisco.computers_and_peripherals.pc;sketch=0;html=1;pointerEvents=1;dashed=0;fillColor=#036897;strokeColor=#ffffff;strokeWidth=2;verticalLabelPosition=bottom;verticalAlign=top;align=center;outlineConnect=0;" vertex="1" parent="SkOCSefM65isGyV2LLbA-2581">
          <mxGeometry x="390" y="4" width="78" height="70" as="geometry" />
        </mxCell>
        <mxCell id="SkOCSefM65isGyV2LLbA-2592" value="" style="group" vertex="1" connectable="0" parent="SkOCSefM65isGyV2LLbA-2569">
          <mxGeometry y="108.5" width="769.666748046875" height="33" as="geometry" />
        </mxCell>
        <mxCell id="SkOCSefM65isGyV2LLbA-2593" style="rounded=0;orthogonalLoop=1;jettySize=auto;html=1;elbow=vertical;strokeWidth=3;" edge="1" parent="SkOCSefM65isGyV2LLbA-2592" source="SkOCSefM65isGyV2LLbA-2594">
          <mxGeometry relative="1" as="geometry">
            <mxPoint x="769.666748046875" y="16.5" as="targetPoint" />
          </mxGeometry>
        </mxCell>
        <mxCell id="SkOCSefM65isGyV2LLbA-2594" value="" style="shape=mxgraph.cisco.switches.workgroup_switch;sketch=0;html=1;pointerEvents=1;dashed=0;fillColor=#036897;strokeColor=#ffffff;strokeWidth=2;verticalLabelPosition=bottom;verticalAlign=top;align=center;outlineConnect=0;" vertex="1" parent="SkOCSefM65isGyV2LLbA-2592">
          <mxGeometry width="66.66" height="33" as="geometry" />
        </mxCell>
        <mxCell id="SkOCSefM65isGyV2LLbA-2595" value="" style="group" vertex="1" connectable="0" parent="1">
          <mxGeometry x="-264" y="767" width="702" height="597" as="geometry" />
        </mxCell>
        <mxCell id="SkOCSefM65isGyV2LLbA-2596" value="" style="group" vertex="1" connectable="0" parent="SkOCSefM65isGyV2LLbA-2595">
          <mxGeometry x="132" y="76" width="397" height="70" as="geometry" />
        </mxCell>
        <mxCell id="SkOCSefM65isGyV2LLbA-2597" style="edgeStyle=none;rounded=0;orthogonalLoop=1;jettySize=auto;html=1;strokeWidth=3;endArrow=none;startFill=0;" edge="1" parent="SkOCSefM65isGyV2LLbA-2596" source="SkOCSefM65isGyV2LLbA-2598">
          <mxGeometry relative="1" as="geometry">
            <mxPoint x="39" y="99.1666819254558" as="targetPoint" />
          </mxGeometry>
        </mxCell>
        <mxCell id="SkOCSefM65isGyV2LLbA-2598" value="" style="shape=mxgraph.cisco.computers_and_peripherals.pc;sketch=0;html=1;pointerEvents=1;dashed=0;fillColor=#036897;strokeColor=#ffffff;strokeWidth=2;verticalLabelPosition=bottom;verticalAlign=top;align=center;outlineConnect=0;" vertex="1" parent="SkOCSefM65isGyV2LLbA-2596">
          <mxGeometry width="78" height="70" as="geometry" />
        </mxCell>
        <mxCell id="SkOCSefM65isGyV2LLbA-2599" style="edgeStyle=none;rounded=0;orthogonalLoop=1;jettySize=auto;html=1;exitX=0.5;exitY=1;exitDx=0;exitDy=0;exitPerimeter=0;strokeWidth=3;endArrow=none;startFill=0;" edge="1" parent="SkOCSefM65isGyV2LLbA-2596" source="SkOCSefM65isGyV2LLbA-2600">
          <mxGeometry relative="1" as="geometry">
            <mxPoint x="198.66666666666674" y="98.5" as="targetPoint" />
          </mxGeometry>
        </mxCell>
        <mxCell id="SkOCSefM65isGyV2LLbA-2600" value="" style="shape=mxgraph.cisco.computers_and_peripherals.pc;sketch=0;html=1;pointerEvents=1;dashed=0;fillColor=#036897;strokeColor=#ffffff;strokeWidth=2;verticalLabelPosition=bottom;verticalAlign=top;align=center;outlineConnect=0;" vertex="1" parent="SkOCSefM65isGyV2LLbA-2596">
          <mxGeometry x="160" width="78" height="70" as="geometry" />
        </mxCell>
        <mxCell id="SkOCSefM65isGyV2LLbA-2601" style="edgeStyle=none;rounded=0;orthogonalLoop=1;jettySize=auto;html=1;exitX=0.5;exitY=1;exitDx=0;exitDy=0;exitPerimeter=0;strokeWidth=3;endArrow=none;startFill=0;" edge="1" parent="SkOCSefM65isGyV2LLbA-2596" source="SkOCSefM65isGyV2LLbA-2602">
          <mxGeometry relative="1" as="geometry">
            <mxPoint x="357.8333333333335" y="99.83333841959643" as="targetPoint" />
          </mxGeometry>
        </mxCell>
        <mxCell id="SkOCSefM65isGyV2LLbA-2602" value="" style="shape=mxgraph.cisco.computers_and_peripherals.pc;sketch=0;html=1;pointerEvents=1;dashed=0;fillColor=#036897;strokeColor=#ffffff;strokeWidth=2;verticalLabelPosition=bottom;verticalAlign=top;align=center;outlineConnect=0;" vertex="1" parent="SkOCSefM65isGyV2LLbA-2596">
          <mxGeometry x="319" width="78" height="70" as="geometry" />
        </mxCell>
        <mxCell id="SkOCSefM65isGyV2LLbA-2603" value="" style="group" vertex="1" connectable="0" parent="SkOCSefM65isGyV2LLbA-2595">
          <mxGeometry x="129" y="194" width="403" height="70" as="geometry" />
        </mxCell>
        <mxCell id="SkOCSefM65isGyV2LLbA-2604" style="edgeStyle=none;rounded=0;orthogonalLoop=1;jettySize=auto;html=1;exitX=0.5;exitY=0;exitDx=0;exitDy=0;exitPerimeter=0;strokeWidth=3;endArrow=none;startFill=0;" edge="1" parent="SkOCSefM65isGyV2LLbA-2603" source="SkOCSefM65isGyV2LLbA-2605">
          <mxGeometry relative="1" as="geometry">
            <mxPoint x="42.16666666666674" y="-23.499989827473883" as="targetPoint" />
          </mxGeometry>
        </mxCell>
        <mxCell id="SkOCSefM65isGyV2LLbA-2605" value="" style="shape=mxgraph.cisco.computers_and_peripherals.pc;sketch=0;html=1;pointerEvents=1;dashed=0;fillColor=#036897;strokeColor=#ffffff;strokeWidth=2;verticalLabelPosition=bottom;verticalAlign=top;align=center;outlineConnect=0;" vertex="1" parent="SkOCSefM65isGyV2LLbA-2603">
          <mxGeometry x="3" width="78" height="70" as="geometry" />
        </mxCell>
        <mxCell id="SkOCSefM65isGyV2LLbA-2606" style="edgeStyle=none;rounded=0;orthogonalLoop=1;jettySize=auto;html=1;exitX=0.5;exitY=0;exitDx=0;exitDy=0;exitPerimeter=0;strokeWidth=3;endArrow=none;startFill=0;" edge="1" parent="SkOCSefM65isGyV2LLbA-2603" source="SkOCSefM65isGyV2LLbA-2607">
          <mxGeometry relative="1" as="geometry">
            <mxPoint x="201.66666666666674" y="-21.49999491373694" as="targetPoint" />
          </mxGeometry>
        </mxCell>
        <mxCell id="SkOCSefM65isGyV2LLbA-2607" value="" style="shape=mxgraph.cisco.computers_and_peripherals.pc;sketch=0;html=1;pointerEvents=1;dashed=0;fillColor=#036897;strokeColor=#ffffff;strokeWidth=2;verticalLabelPosition=bottom;verticalAlign=top;align=center;outlineConnect=0;" vertex="1" parent="SkOCSefM65isGyV2LLbA-2603">
          <mxGeometry x="163" width="78" height="70" as="geometry" />
        </mxCell>
        <mxCell id="SkOCSefM65isGyV2LLbA-2608" style="edgeStyle=none;rounded=0;orthogonalLoop=1;jettySize=auto;html=1;exitX=0.5;exitY=0;exitDx=0;exitDy=0;exitPerimeter=0;strokeWidth=3;endArrow=none;startFill=0;" edge="1" parent="SkOCSefM65isGyV2LLbA-2603" source="SkOCSefM65isGyV2LLbA-2609">
          <mxGeometry relative="1" as="geometry">
            <mxPoint x="361.16666666666674" y="-20.833338419596316" as="targetPoint" />
          </mxGeometry>
        </mxCell>
        <mxCell id="SkOCSefM65isGyV2LLbA-2609" value="" style="shape=mxgraph.cisco.computers_and_peripherals.pc;sketch=0;html=1;pointerEvents=1;dashed=0;fillColor=#036897;strokeColor=#ffffff;strokeWidth=2;verticalLabelPosition=bottom;verticalAlign=top;align=center;outlineConnect=0;" vertex="1" parent="SkOCSefM65isGyV2LLbA-2603">
          <mxGeometry x="322" width="78" height="70" as="geometry" />
        </mxCell>
        <mxCell id="SkOCSefM65isGyV2LLbA-2610" value="" style="group" vertex="1" connectable="0" parent="SkOCSefM65isGyV2LLbA-2595">
          <mxGeometry x="132" y="287" width="408" height="70" as="geometry" />
        </mxCell>
        <mxCell id="SkOCSefM65isGyV2LLbA-2611" value="" style="shape=mxgraph.cisco.computers_and_peripherals.pc;sketch=0;html=1;pointerEvents=1;dashed=0;fillColor=#036897;strokeColor=#ffffff;strokeWidth=2;verticalLabelPosition=bottom;verticalAlign=top;align=center;outlineConnect=0;" vertex="1" parent="SkOCSefM65isGyV2LLbA-2610">
          <mxGeometry width="78" height="70" as="geometry" />
        </mxCell>
        <mxCell id="SkOCSefM65isGyV2LLbA-2612" value="" style="shape=mxgraph.cisco.computers_and_peripherals.pc;sketch=0;html=1;pointerEvents=1;dashed=0;fillColor=#036897;strokeColor=#ffffff;strokeWidth=2;verticalLabelPosition=bottom;verticalAlign=top;align=center;outlineConnect=0;" vertex="1" parent="SkOCSefM65isGyV2LLbA-2610">
          <mxGeometry x="165" width="78" height="70" as="geometry" />
        </mxCell>
        <mxCell id="SkOCSefM65isGyV2LLbA-2613" value="" style="shape=mxgraph.cisco.computers_and_peripherals.pc;sketch=0;html=1;pointerEvents=1;dashed=0;fillColor=#036897;strokeColor=#ffffff;strokeWidth=2;verticalLabelPosition=bottom;verticalAlign=top;align=center;outlineConnect=0;" vertex="1" parent="SkOCSefM65isGyV2LLbA-2610">
          <mxGeometry x="330" width="78" height="70" as="geometry" />
        </mxCell>
        <mxCell id="SkOCSefM65isGyV2LLbA-2614" value="" style="group" vertex="1" connectable="0" parent="SkOCSefM65isGyV2LLbA-2595">
          <mxGeometry x="132" y="405" width="408" height="70" as="geometry" />
        </mxCell>
        <mxCell id="SkOCSefM65isGyV2LLbA-2615" value="" style="shape=mxgraph.cisco.computers_and_peripherals.pc;sketch=0;html=1;pointerEvents=1;dashed=0;fillColor=#036897;strokeColor=#ffffff;strokeWidth=2;verticalLabelPosition=bottom;verticalAlign=top;align=center;outlineConnect=0;" vertex="1" parent="SkOCSefM65isGyV2LLbA-2614">
          <mxGeometry width="78" height="70" as="geometry" />
        </mxCell>
        <mxCell id="SkOCSefM65isGyV2LLbA-2616" value="" style="shape=mxgraph.cisco.computers_and_peripherals.pc;sketch=0;html=1;pointerEvents=1;dashed=0;fillColor=#036897;strokeColor=#ffffff;strokeWidth=2;verticalLabelPosition=bottom;verticalAlign=top;align=center;outlineConnect=0;" vertex="1" parent="SkOCSefM65isGyV2LLbA-2614">
          <mxGeometry x="165" width="78" height="70" as="geometry" />
        </mxCell>
        <mxCell id="SkOCSefM65isGyV2LLbA-2617" value="" style="shape=mxgraph.cisco.computers_and_peripherals.pc;sketch=0;html=1;pointerEvents=1;dashed=0;fillColor=#036897;strokeColor=#ffffff;strokeWidth=2;verticalLabelPosition=bottom;verticalAlign=top;align=center;outlineConnect=0;" vertex="1" parent="SkOCSefM65isGyV2LLbA-2614">
          <mxGeometry x="330" width="78" height="70" as="geometry" />
        </mxCell>
        <mxCell id="SkOCSefM65isGyV2LLbA-2618" value="" style="group" vertex="1" connectable="0" parent="SkOCSefM65isGyV2LLbA-2595">
          <mxGeometry x="129" y="492" width="408" height="70" as="geometry" />
        </mxCell>
        <mxCell id="SkOCSefM65isGyV2LLbA-2619" style="edgeStyle=none;rounded=0;orthogonalLoop=1;jettySize=auto;html=1;exitX=0.5;exitY=1;exitDx=0;exitDy=0;exitPerimeter=0;strokeWidth=3;endArrow=none;startFill=0;" edge="1" parent="SkOCSefM65isGyV2LLbA-2618" source="SkOCSefM65isGyV2LLbA-2620">
          <mxGeometry relative="1" as="geometry">
            <mxPoint x="39" y="106" as="targetPoint" />
          </mxGeometry>
        </mxCell>
        <mxCell id="SkOCSefM65isGyV2LLbA-2620" value="" style="shape=mxgraph.cisco.computers_and_peripherals.pc;sketch=0;html=1;pointerEvents=1;dashed=0;fillColor=#036897;strokeColor=#ffffff;strokeWidth=2;verticalLabelPosition=bottom;verticalAlign=top;align=center;outlineConnect=0;" vertex="1" parent="SkOCSefM65isGyV2LLbA-2618">
          <mxGeometry width="78" height="70" as="geometry" />
        </mxCell>
        <mxCell id="SkOCSefM65isGyV2LLbA-2621" style="edgeStyle=none;rounded=0;orthogonalLoop=1;jettySize=auto;html=1;exitX=0.5;exitY=1;exitDx=0;exitDy=0;exitPerimeter=0;strokeWidth=3;endArrow=none;startFill=0;" edge="1" parent="SkOCSefM65isGyV2LLbA-2618" source="SkOCSefM65isGyV2LLbA-2622">
          <mxGeometry relative="1" as="geometry">
            <mxPoint x="204" y="106" as="targetPoint" />
          </mxGeometry>
        </mxCell>
        <mxCell id="SkOCSefM65isGyV2LLbA-2622" value="" style="shape=mxgraph.cisco.computers_and_peripherals.pc;sketch=0;html=1;pointerEvents=1;dashed=0;fillColor=#036897;strokeColor=#ffffff;strokeWidth=2;verticalLabelPosition=bottom;verticalAlign=top;align=center;outlineConnect=0;" vertex="1" parent="SkOCSefM65isGyV2LLbA-2618">
          <mxGeometry x="165" width="78" height="70" as="geometry" />
        </mxCell>
        <mxCell id="SkOCSefM65isGyV2LLbA-2623" style="edgeStyle=none;rounded=0;orthogonalLoop=1;jettySize=auto;html=1;exitX=0.5;exitY=1;exitDx=0;exitDy=0;exitPerimeter=0;strokeWidth=3;endArrow=none;startFill=0;" edge="1" parent="SkOCSefM65isGyV2LLbA-2618" source="SkOCSefM65isGyV2LLbA-2624">
          <mxGeometry relative="1" as="geometry">
            <mxPoint x="369" y="105" as="targetPoint" />
          </mxGeometry>
        </mxCell>
        <mxCell id="SkOCSefM65isGyV2LLbA-2624" value="" style="shape=mxgraph.cisco.computers_and_peripherals.pc;sketch=0;html=1;pointerEvents=1;dashed=0;fillColor=#036897;strokeColor=#ffffff;strokeWidth=2;verticalLabelPosition=bottom;verticalAlign=top;align=center;outlineConnect=0;" vertex="1" parent="SkOCSefM65isGyV2LLbA-2618">
          <mxGeometry x="330" width="78" height="70" as="geometry" />
        </mxCell>
        <mxCell id="SkOCSefM65isGyV2LLbA-2625" style="edgeStyle=none;rounded=0;orthogonalLoop=1;jettySize=auto;html=1;exitX=0.5;exitY=1;exitDx=0;exitDy=0;exitPerimeter=0;strokeWidth=3;endArrow=none;startFill=0;" edge="1" parent="SkOCSefM65isGyV2LLbA-2595" source="SkOCSefM65isGyV2LLbA-2613" target="SkOCSefM65isGyV2LLbA-2617">
          <mxGeometry relative="1" as="geometry" />
        </mxCell>
        <mxCell id="SkOCSefM65isGyV2LLbA-2626" style="edgeStyle=none;rounded=0;orthogonalLoop=1;jettySize=auto;html=1;exitX=0.5;exitY=1;exitDx=0;exitDy=0;exitPerimeter=0;entryX=0.5;entryY=0;entryDx=0;entryDy=0;entryPerimeter=0;strokeWidth=3;endArrow=none;startFill=0;" edge="1" parent="SkOCSefM65isGyV2LLbA-2595" source="SkOCSefM65isGyV2LLbA-2611" target="SkOCSefM65isGyV2LLbA-2615">
          <mxGeometry relative="1" as="geometry" />
        </mxCell>
        <mxCell id="SkOCSefM65isGyV2LLbA-2627" style="edgeStyle=none;rounded=0;orthogonalLoop=1;jettySize=auto;html=1;exitX=0.5;exitY=1;exitDx=0;exitDy=0;exitPerimeter=0;entryX=0.5;entryY=0;entryDx=0;entryDy=0;entryPerimeter=0;strokeWidth=3;endArrow=none;startFill=0;" edge="1" parent="SkOCSefM65isGyV2LLbA-2595" source="SkOCSefM65isGyV2LLbA-2612" target="SkOCSefM65isGyV2LLbA-2616">
          <mxGeometry relative="1" as="geometry" />
        </mxCell>
        <mxCell id="SkOCSefM65isGyV2LLbA-2628" value="" style="shape=mxgraph.cisco.switches.workgroup_switch;sketch=0;html=1;pointerEvents=1;dashed=0;fillColor=#036897;strokeColor=#ffffff;strokeWidth=2;verticalLabelPosition=bottom;verticalAlign=top;align=center;outlineConnect=0;" vertex="1" parent="1">
          <mxGeometry x="-397" y="1010" width="66.66" height="33" as="geometry" />
        </mxCell>
        <mxCell id="SkOCSefM65isGyV2LLbA-2629" style="edgeStyle=orthogonalEdgeStyle;rounded=0;orthogonalLoop=1;jettySize=auto;html=1;exitX=0.98;exitY=0.5;exitDx=0;exitDy=0;exitPerimeter=0;strokeWidth=3;endArrow=none;startFill=0;entryX=0;entryY=0.5;entryDx=0;entryDy=0;entryPerimeter=0;" edge="1" source="SkOCSefM65isGyV2LLbA-2628" target="SkOCSefM65isGyV2LLbA-2594" parent="1">
          <mxGeometry relative="1" as="geometry">
            <mxPoint x="438" y="1363.95" as="targetPoint" />
            <mxPoint x="-230.6700000000003" y="773.0000000000002" as="sourcePoint" />
            <Array as="points">
              <mxPoint x="-255" y="1027" />
              <mxPoint x="-180" y="1025" />
              <mxPoint x="-180" y="935" />
              <mxPoint x="333" y="935" />
              <mxPoint x="333" y="1143" />
              <mxPoint x="-183" y="1143" />
              <mxPoint x="-183" y="1364" />
              <mxPoint x="606" y="1364" />
              <mxPoint x="606" y="1020" />
            </Array>
          </mxGeometry>
        </mxCell>
      </root>
    </mxGraphModel>
  </diagram>
</mxfile>
